<?xml version="1.0" encoding="utf-8"?>
<!-- Generator: Adobe Illustrator 23.0.3, SVG Export Plug-In . SVG Version: 6.00 Build 0)  -->
<svg version="1.1" id="Capa_1" focusable="false" xmlns="http://www.w3.org/2000/svg" xmlns:xlink="http://www.w3.org/1999/xlink"
	 x="0px" y="0px" viewBox="0 0 512 512" style="enable-background:new 0 0 512 512;" xml:space="preserve">
<path d="M193.2,40.7c18.6-2.2,37.2-4.5,55.9-5c23.3-0.2,46.5,2,69.6,5c2.4-1.5,4.9-1.5,7.7-1c7.8,1.5,15.6,3.1,23.3,5.4
	c10.7,1.9,20.8,5.6,31,9.4c10.6,3.5,21.3,6.8,31,12.7c3.8,2.3,8.4,3,12.5,4.8c4.9,2.2,9.6,4.5,14.1,7.4c1.8,1.2,3.5,2.4,3.7,4.8
	c19.6,11.9,38.9,24.2,56.5,39c5.1,4.3,7.4,9.4,7.6,15.8c0.1,7.2,0.2,14.4,0.2,21.6c2.1,1.7,2.5,4.1,2.6,6.6
	c0.1,8.1,0.5,16.3-0.3,24.4c-0.2,2.1,0.1,4.3-0.7,6.4c-4.5,5.6-8.2,12.2-16.5,12.9c-23.2-1-46.4-0.8-69.6,0
	c-3.6-0.2-6.3-2.4-9.5-3.7c-6-3.3-7.9-9.1-9.6-15.1c-4.6-9.9-8.1-20.3-12.2-30.5c-2.9-8.3-6.9-16.3-8.7-25c-0.1-0.7-1-1.1-1.6-1.6
	c-1.5-0.7-2.2-2.3-3.7-3.1c-2.2-2.8-5-4-8.5-4.8c-7-1.6-13.5-4.7-20.6-6.2c-9.6-3-19.5-5-29.3-7.2c-13.2-1.4-26.2-3.9-39.6-3.5
	c-7.4-1.1-14.8-0.2-22.2-0.8c-10.8,0.7-21.7-0.4-32.5,0.8c-9.9,1-19.7,2.5-29.5,3.6c-10.8,2-21.4,5.1-32,7.6
	c-7,2.1-13.7,4.9-20.8,6.4c-2.2,0.5-3.4,1.9-4.8,3.4c-1.3,0.9-2.5,2.1-3.7,3.3c-1.3,1-2.5,1.8-2.9,3.8c-1.6,7.6-4.7,14.7-7.8,21.7
	c-3.1,10.2-7.5,19.9-11.4,29.7c-0.6,1.6-1.1,3.2-1.4,4.8c-2.4,4.5-4,9.6-8.9,12.4c-2.2,0.6-4,2.4-6.4,2.1c-11.4,0.3-22.7-0.1-34.1,0
	c-4.6,0-9,0.7-13.5,1c-9.6,0.5-19.3,0.9-28.8-0.4c-7.6-1-10.5-7.7-13.1-14.2c0.1-1.2,0.7-2.1,1.5-2.9c0-10.7,0-21.3,0-32
	c-1.9-1.6-2.5-3.7-2.6-6c-0.1-6-0.4-12.1,0.1-18.1c0.5-5.5,3.6-10.4,7.3-14c6.1-5.9,13-11,20-15.8c1.9-1.3,3.8-2.5,6.3-1.6
	c3-2,6.1-4,9.1-6c0-0.4-0.2-0.8,0-1.1c2-4.8,17.5-13.5,22.8-12.8c20.3-11,41.4-19.9,62.9-28.2c1.6-2.2,3.4-3.8,6.1-4.7
	c8.1-2.6,16-5.5,24.4-6.9c7.7-2.2,15.6-4,23.5-5.4C188.4,39.1,190.9,39.2,193.2,40.7z"/>
<path d="M475.8,384.3c0-2.3,0-4.5-0.9-6.7c-3.2-10.5-8.6-19.8-15-28.6c-6.4-15-16.4-27.9-23.6-42.5c-3.7-7.4-8.7-14.2-12.3-21.7
	c-3-5.5-6.5-10.7-9.2-16.4c-4.4-4.5-6.7-10.2-9.1-15.8c-6.1-9.9-11.9-20-17.6-30.2c-2.3-4-4.3-8.1-6.7-12
	c-4.9-5.1-6.2-12.4-10.7-17.8c-4.4-9.8-12.1-16.9-20.3-23.3c-8.2-5.6-18-7.5-27-11.1c-2.3,0.2-4.6,0.3-6.9-0.2
	c-10-0.9-19.9-0.4-29.9-0.2c-10.2-0.4-20.5-0.3-30.7,0c-10.2-0.3-20.5-0.3-30.7,0c-9.6-0.3-19.2-0.5-28.7,0.1
	c-2.8,1-5.8-0.3-8.4,0.9c-8.6,3.9-18.5,4.7-26.3,10.6c-8.4,5.6-14.8,13.2-20.1,21.6c-4.1,7.2-6.9,15.1-12.5,21.4
	c-1.5,3.5-3.5,6.7-5.3,10c-5.7,10.7-12.6,20.9-17.7,31.9c-3.4,3.5-3.5,9.1-7.7,12.1c-3.4,6.8-8,13-10.9,20c-1.4,3.1-3.7,5.7-5.4,8.6
	c-5.6,9.5-10.3,19.5-16.1,28.9c-5,7.8-9.4,16.1-14.3,24c-0.8,2-2.2,3.5-3.3,5.3c-6.2,10.3-12.8,20.6-13.1,33
	c-0.5,20.2-0.3,40.5,2.5,60.6c0.4,1.6,0.8,3.1,1.2,4.7c-0.2,0.5-0.5,1.1-0.5,1.6c0.4,10.3,9.9,18.4,22.3,19.1
	c2.7,0.4,5.4,0.7,8.1,1.1c10.3,0,20.5,0,30.8,0c5.4,4,26.6,4,32,0c10.3,0,20.5,0,30.8,0c1.2,1.2,2.5,2.3,4.4,2.4
	c7.4,0.5,14.8,0.5,22.1,0c1.9-0.1,3.1-1.2,4.4-2.4c10.7,0,21.3,0,32,0c1.2,1.2,2.5,2.3,4.4,2.4c7.4,0.5,14.8,0.5,22.1,0
	c1.9-0.1,3.1-1.2,4.4-2.4c10.3,0,20.5,0,30.8,0c5.4,4,26.5,4,32,0c10.3,0,20.5,0,30.8,0c1.2,1.2,2.5,2.3,4.4,2.4
	c7.4,0.5,14.8,0.5,22.1,0c1.9-0.1,3.1-1.2,4.4-2.4c10.7,0,21.3,0,32,0c1.2,1.2,2.5,2.3,4.4,2.4c7.4,0.5,14.8,0.5,22.1,0
	c1.9-0.1,3.1-1.2,4.4-2.4c1.1-0.1,2.1-0.1,3.2-0.2c1.4-0.8,3-0.4,4.4-0.5c9.3-0.4,16.5-4.5,20.9-12.9c1.7-3.3,3.2-6.6,5.3-9.7
	c0.2-1,0.4-2,0.5-3C476.1,426.2,477.9,405.2,475.8,384.3z M256,398.8c-45.2,0-81.9-36.7-81.9-81.9S210.8,235,256,235
	s81.9,36.7,81.9,81.9S301.2,398.8,256,398.8z"/>
</svg>
