<svg id="Layer_1" xmlns="http://www.w3.org/2000/svg" viewBox="-1167 1461.1 60 20"><style>.st0{fill:#F6F6F4;}</style><a><path class="st0" d="M-1127.9 1471.5c-1 0-1.6-1-1.9-2.5-.2-1.1-.2-2.3 0-3.4.3-1.6 1.1-2.5 1.9-2.5 1 0 1.6 1 1.9 2.5.2 1.1.2 2.3 0 3.4-.1 1.6-.9 2.5-1.9 2.5zm0-8c-.8 0-1.4.8-1.5 2.2-.2 1.1-.2 2.2 0 3.2.3 1.4.9 2.2 1.5 2.2.8 0 1.4-.8 1.5-2.2.2-1.1.2-2.2 0-3.2-.1-1.4-.7-2.2-1.5-2.2zm-21.6 8c-.1 0-.2-.1-.2-.2v-7.7h-1.4c-.1 0-.2-.1-.2-.2s.1-.2.2-.2h3.3c.1 0 .2.1.2.2s-.1.2-.2.2h-1.4v7.7c-.1.1-.2.2-.3.2zm14 0c-.1 0-.2-.1-.2-.2v-7.7h-1.4c-.1 0-.2-.1-.2-.2s.1-.2.2-.2h3.3c.1 0 .2.1.2.2s-.1.2-.2.2h-1.4v7.7c-.1.1-.2.2-.3.2zm3.9 0c-.1 0-.2-.1-.2-.2v-7.7h-1.4c-.1 0-.2-.1-.2-.2s.1-.2.2-.2h3.3c.1 0 .2.1.2.2s-.1.2-.2.2h-1.4v7.7c-.1.1-.1.2-.3.2zm13.6 0c-.1 0-.2-.1-.2-.2v-6.3c0-.1.1-.2.2-.2s.2.1.2.2v6.3c0 .1-.1.2-.2.2zm-40.1 0h-2.1v-6.5c0-.1.1-.2.2-.2s.2.1.2.2v6.2h1.7c.1 0 .2.1.2.2 0 0-.1.1-.2.1zm1.4-2.3h1.8l-1-3.6-.8 3.6zm2.7 2c0 .1 0 .2-.1.2s-.2 0-.2-.1l-.5-1.7h-2l-.5 1.7c0 .1-.1.2-.2.1-.1 0-.2-.1-.1-.2l1.6-6.3c0-.1.1-.1.2-.1s.2.1.2.1l1.6 6.3zm37.7-2h1.8l-1-3.6-.8 3.6zm2.7 2c0 .1 0 .2-.1.2s-.2 0-.2-.1l-.5-1.7h-2l-.5 1.7c0 .1-.1.2-.2.1-.1 0-.2-.1-.1-.2l1.6-6.3c0-.1.1-.1.2-.1s.2.1.2.1l1.6 6.3zm-24.2-2.6l-1.3-4.7-1.3 4.7h2.6zm-1.3.4h-1.4l-.6 2.3c0 .1-.2.2-.3.2-.1 0-.2-.1-.1-.2l2.1-8c0-.1.2-.2.2-.2.1 0 .2 0 .2.2l2.1 8c0 .1 0 .2-.1.2s-.2 0-.3-.2l-.6-2.3h-1.2zm-12.8 7.5h.5c.4 0 .7.1 1 .3.3.3.4.6.4 1s-.1.7-.4 1c-.3.3-.6.3-1 .3h-.5v-2.6zm.5 2.3c.3 0 .6 0 .8-.3.2-.2.3-.5.3-.8s-.1-.6-.3-.8-.5-.2-.8-.2h-.2v2c0 .1.2.1.2.1zm2.7.2h-.3v-2.5h.3v2.5zm3.4-2.6l.9 2.1.9-2.1.5 2.6h-.3l-.3-1.6-.8 1.8-.8-1.8-.3 1.6h-.3l.5-2.6zm3.9 1.9l-.3.7h-.3l1.2-2.6 1.2 2.6h-.3l-.3-.7h-1.2zm.6-1.3l-.4 1h.9l-.5-1zm2.6-.6l.9 2.1.9-2.1.5 2.6h-.3l-.3-1.6-.8 1.8-.8-1.8-.3 1.6h-.3l.5-2.6zm3.3.1h.4c.5 0 .9.2.9.7 0 .2-.1.4-.3.5.3.1.5.4.5.7 0 .5-.4.7-.9.7h-.6v-2.6zm.2 1.1c.4 0 .7 0 .7-.4s-.2-.4-.6-.4h-.1v.8zm0 1.2h.3c.3 0 .7-.1.7-.5s-.4-.5-.7-.5h-.3v1zm2.8.2h-.3v-2.5h.4c.5 0 .9.1.9.7 0 .4-.2.7-.6.7l.8 1.2h-.4l-.8-1.1h-.1l.1 1zm0-1.4c.4 0 .7-.1.7-.5s-.3-.5-.7-.5h-.1l.1 1zm2.6 1.4h-.3v-2.5h.3v2.5zm1.3-2.6l1.9 2v-1.9h.3v2.6l-1.9-2v1.9h-.3v-2.6zm6.1 1.3c0 .7-.6 1.3-1.3 1.3-.7 0-1.3-.6-1.3-1.3 0-.7.6-1.3 1.3-1.3.6.1 1.3.6 1.3 1.3zm-2.4 0c0 .6.5 1.1 1.1 1.1.6 0 1.1-.5 1.1-1.1 0-.6-.5-1.1-1.1-1.1-.6.2-1.1.5-1.1 1.1zm17.3-4h-2.9c.1-.5.4-.8.8-1 .1 0 .1-.1.1-.2s-.1-.2-.2-.2h-.1c-.6.2-1 .7-1.1 1.3h-53.3c-.1-.6-.5-1.1-1.1-1.3h-.1s-.2.1-.2.2.1.1.1.2c.4.2.7.5.8 1h-2.9v.3c0 1 .8 1.6 1.6 1.6.9 0 1.6-.7 1.6-1.5h53.3c0 .9.8 1.5 1.6 1.5 1 0 1.6-.8 1.6-1.6.4-.1.4-.2.4-.3zm-58.2 1.5c-.7 0-1.3-.6-1.3-1.3h2.6c0 .8-.6 1.3-1.3 1.3zm56.6 0c-.7 0-1.3-.6-1.3-1.3h2.6c-.1.8-.7 1.3-1.3 1.3zm-13.7-6.1c.8 0 1.5-.3 2-.8s.9-1.3.9-2c0-1.2-.7-2.1-1.8-2.6-.3-.1-.7-.2-1.1-.2v5.6zm-2.3-1.5c-.4-.4-.7-1-.7-1.5 0-1.3.5-2.2 1.5-2.6.4-.2.9-.3 1.3-.3.5 0 1 .1 1.4.3 1.3.5 2 1.5 2 2.9 0 .9-.3 1.6-1 2.2-.4.4-.9.7-1.4.9l2 1.7c.1.1.1.2 0 .3-.1.1-.2.1-.3 0l-2.2-1.9h-.5v2.7c0 .1-.1.2-.2.2s-.2-.1-.2-.2v-8.7c-.3 0-.6.1-.9.2-.9.4-1.4 1.2-1.4 2.3 0 .5.2 1 .5 1.4.1-.1.2 0 .1.1.1.1 0 .2-.1.2.2-.1.1-.1.1-.2zm-20.4 1.5c.8 0 1.5-.3 2-.8s.9-1.3.9-2c0-1.2-.7-2.1-1.8-2.6-.3-.1-.7-.2-1.1-.2v5.6zm-2.3-1.5c-.4-.4-.7-1-.7-1.5 0-1.3.5-2.2 1.5-2.6.4-.2.9-.3 1.3-.3.5 0 1 .1 1.4.3 1.3.5 2 1.5 2 2.9 0 .9-.3 1.6-1 2.2-.4.4-.9.7-1.4.9l2 1.7c.1.1.1.2 0 .3-.1.1-.2.1-.3 0l-2.2-1.9h-.5v2.7c0 .1-.1.2-.2.2s-.2-.1-.2-.2v-8.7c-.3 0-.6.1-.9.2-.9.4-1.4 1.2-1.4 2.3 0 .5.2 1 .6 1.4 0 0 .1.1.1.2s-.1.2-.2.2c.2-.2.1-.2.1-.3z"/></a></svg>