<svg id="Capa_1" data-name="Capa 1" xmlns="http://www.w3.org/2000/svg" viewBox="0 0 841.89 595.28"><defs><style>.cls-1{fill:#fff;}.cls-2{fill:none;stroke:#fff;stroke-miterlimit:10;}</style></defs><title>Mesa de trabajo 1</title><g id="_Grupo_" data-name="&lt;Grupo&gt;"><g id="_Grupo_2" data-name="&lt;Grupo&gt;"><g id="_Grupo_3" data-name="&lt;Grupo&gt;"><g id="_Grupo_4" data-name="&lt;Grupo&gt;"><path id="_Trazado_compuesto_" data-name="&lt;Trazado compuesto&gt;" class="cls-1" d="M375.93 256.35a2.7 2.7 0 0 0 3.43-2.06l7.95-30.3h35.48l7.95 30.3a2.7 2.7 0 0 0 3.43 2.06 2.63 2.63 0 0 0 1.77-3.18l-28.05-106.29a2.92 2.92 0 0 0-5.68 0l-28 106.29a2.63 2.63 0 0 0 1.72 3.18zM405.05 156l16.46 62.81H388.6z"/><path id="_Trazado_" data-name="&lt;Trazado&gt;" class="cls-1" d="M154.14 254.13a2.38 2.38 0 0 0-2.35-2.35h-23.7v-81.65a2.35 2.35 0 0 0-2.35-2.34 2.42 2.42 0 0 0-2.35 2.34v86.35h28.4a2.33 2.33 0 0 0 2.35-2.35z"/><path id="_Trazado_compuesto_2" data-name="&lt;Trazado compuesto&gt;" class="cls-1" d="M286.73 183.2a33.21 33.21 0 0 0 8.66 21.05 2.64 2.64 0 0 0 4.7-1.65 2.62 2.62 0 0 0-1-2 26.55 26.55 0 0 1-7.07-17.48c-.52-14.5 5.68-25.3 17.45-30.39a38.33 38.33 0 0 1 11.86-2.79v115a2.59 2.59 0 1 0 5.18 0v-35.49h.78a35 35 0 0 0 4.72-.17l30 26.25a2.67 2.67 0 0 0 4 0 2.6 2.6 0 0 0-.46-3.84l-27-23.74a42.78 42.78 0 0 0 18.74-11 42.15 42.15 0 0 0 12.32-30.08c0-17.78-10.13-32.3-27.09-38.83a46.24 46.24 0 0 0-17.67-3.42 39.8 39.8 0 0 0-17.33 3.28c-13.98 6.03-21.36 18.55-20.79 35.3zm39.82-33.35a41.25 41.25 0 0 1 14 3c14.94 5.84 23.87 18.56 23.87 34a37.13 37.13 0 0 1-10.94 26.46 36.71 36.71 0 0 1-26.14 10.91h-.78z"/><path id="_Trazado_2" data-name="&lt;Trazado&gt;" class="cls-1" d="M244.5 150.94h19.05v103.17a2.6 2.6 0 0 0 5.18 0V150.94h19a2.6 2.6 0 0 0 2.59-2.59 2.63 2.63 0 0 0-2.59-2.59H244.5a2.6 2.6 0 0 0-2.59 2.59 2.63 2.63 0 0 0 2.59 2.59z"/><path id="_Trazado_compuesto_3" data-name="&lt;Trazado compuesto&gt;" class="cls-1" d="M160.33 256.41a2.35 2.35 0 0 0 2.84-1.73l6.28-23.7h27l6.06 23.53v.17a2.35 2.35 0 1 0 4.56-1.1v-.08l-21.7-84a2.59 2.59 0 0 0-4.9 0l-21.91 84a2.35 2.35 0 0 0 1.77 2.91zm22.57-77.85l12.28 47.72h-24.56z"/><path id="_Trazado_3" data-name="&lt;Trazado&gt;" class="cls-1" d="M684.3 256.48a2.39 2.39 0 0 0 2.35-2.35v-83.82a2.34 2.34 0 0 0-2.35-2.31 2.39 2.39 0 0 0-2.35 2.34v83.82a2.41 2.41 0 0 0 2.35 2.32z"/><path id="_Trazado_4" data-name="&lt;Trazado&gt;" class="cls-1" d="M430 150.94h19v103.17a2.6 2.6 0 0 0 5.18 0V150.94h19a2.6 2.6 0 0 0 2.59-2.59 2.63 2.63 0 0 0-2.59-2.59H430a2.6 2.6 0 0 0-2.59 2.59 2.63 2.63 0 0 0 2.59 2.59z"/><path id="_Trazado_compuesto_4" data-name="&lt;Trazado compuesto&gt;" class="cls-1" d="M696.84 256.41a2.35 2.35 0 0 0 2.83-1.72l6.26-23.69h27l6.05 23.49v.17a2.34 2.34 0 1 0 4.55-1.11v-.07l-21.65-83.79a2.61 2.61 0 0 0-2.44-1.75 2.59 2.59 0 0 0-2.46 1.75l-21.86 83.86a2.35 2.35 0 0 0 1.72 2.86zm22.52-77.68l12.25 47.61h-24.5z"/><path id="_Trazado_5" data-name="&lt;Trazado&gt;" class="cls-1" d="M482.37 150.94h19v103.17a2.59 2.59 0 0 0 2.6 2.37 2.55 2.55 0 0 0 2.58-2.37V150.94h19.05a2.6 2.6 0 0 0 2.59-2.59 2.64 2.64 0 0 0-2.59-2.59h-43.23a2.6 2.6 0 0 0-2.59 2.59 2.63 2.63 0 0 0 2.59 2.59z"/><path id="_Trazado_compuesto_5" data-name="&lt;Trazado compuesto&gt;" class="cls-1" d="M527.68 222.9c4.07 21 13.9 33.58 26.29 33.58 12.59 0 22.17-12.24 26.29-33.58a120 120 0 0 0 0-44.39c-4.09-21.34-13.67-33.58-26.29-33.58s-22.2 12.24-26.29 33.58a120 120 0 0 0 0 44.39zm5.18-43.46c3.62-18.6 11.31-29.27 21.11-29.27s17.5 10.67 21.12 29.27a113.91 113.91 0 0 1 0 42.53c-3.61 18.51-11.3 29.12-21.12 29.12s-17.51-10.61-21.11-29.09a113.49 113.49 0 0 1 0-42.56z"/><path id="_Trazado_compuesto_6" data-name="&lt;Trazado compuesto&gt;" class="cls-1" d="M597.2 204.25a2.64 2.64 0 1 0 3.74-3.69 26.55 26.55 0 0 1-7.07-17.48c-.52-14.5 5.68-25.3 17.45-30.39a38.33 38.33 0 0 1 11.86-2.79v115a2.59 2.59 0 1 0 5.18 0v-35.45h.78a35 35 0 0 0 4.72-.17l30 26.25a2.67 2.67 0 0 0 4 0 2.6 2.6 0 0 0-.47-3.84l-27-23.74a42.78 42.78 0 0 0 18.74-11 42.19 42.19 0 0 0 12.32-30.08c0-17.78-10.13-32.3-27.09-38.83a46.24 46.24 0 0 0-17.67-3.42 39.8 39.8 0 0 0-17.33 3.28c-14 6-21.34 18.53-20.77 35.28a33.21 33.21 0 0 0 8.61 21.07zm31.16-54.4a41.25 41.25 0 0 1 14 3c14.94 5.84 23.87 18.56 23.87 34a37.13 37.13 0 0 1-10.94 26.46 36.71 36.71 0 0 1-26.14 10.91h-.78z"/></g><path id="_Trazado_compuesto_7" data-name="&lt;Trazado compuesto&gt;" class="cls-1" d="M801.73 285h-38.88a17.38 17.38 0 0 1 10.75-12.7 2.43 2.43 0 0 0-.89-4.69 2.35 2.35 0 0 0-.89.17A22.16 22.16 0 0 0 758 285H109a22.19 22.19 0 0 0-13.86-17.22 2.34 2.34 0 0 0-.88-.17 2.43 2.43 0 0 0-.9 4.69 17.38 17.38 0 0 1 10.79 12.7H65.27a22.15 22.15 0 1 0 44 4.68h648.47a22.15 22.15 0 1 0 44-4.68zM87.15 305.87a17.36 17.36 0 0 1-17.32-16.21h34.64a17.36 17.36 0 0 1-17.32 16.21zm692.7 0a17.36 17.36 0 0 1-17.32-16.21h34.64a17.36 17.36 0 0 1-17.32 16.21z"/><path id="_Trazado_6" data-name="&lt;Trazado&gt;" class="cls-1" d="M578.76 348.54l-25.9-27.13v34.62h3.69v-25.59l25.91 27.09v-34.71h-3.7v25.72z"/><path id="_Trazado_compuesto_8" data-name="&lt;Trazado compuesto&gt;" class="cls-1" d="M615.48 322.24a17.18 17.18 0 1 0 17.31 17.23 17.33 17.33 0 0 0-17.31-17.23zm0 30.93a13.75 13.75 0 1 1 13.62-13.75 13.74 13.74 0 0 1-13.62 13.75z"/><path id="_Trazado_7" data-name="&lt;Trazado&gt;" class="cls-1" d="M530.67 322.82h3.7v33.21h-3.7z"/><path id="_Trazado_8" data-name="&lt;Trazado&gt;" class="cls-1" d="M427.86 348.8l-12.07-27.88-6.74 35.11h3.79l4.27-22.47h.09l10.66 23.83 10.7-23.83h.09l4.27 22.47h3.79l-6.74-35.11-12.11 27.88z"/><path id="_Trazado_compuesto_9" data-name="&lt;Trazado compuesto&gt;" class="cls-1" d="M472.78 338.28a7.37 7.37 0 0 0 3.22-6.48c0-6.78-5.07-9-11.1-9h-5.46V356h7.71c6.56 0 11.89-2.64 11.89-9.25a8.43 8.43 0 0 0-6.26-8.47zm-9.6-12h1.45c4.54 0 7.71.53 7.71 5.55s-3.57 5.64-7.75 5.64h-1.41zm3.7 26.34h-3.7v-12h3.21c4.06 0 9 .75 9 5.9s-4.39 6.07-8.51 6.07z"/><path id="_Trazado_9" data-name="&lt;Trazado&gt;" class="cls-1" d="M272.84 322.76h3.7v33.21h-3.7z"/><path id="_Trazado_compuesto_10" data-name="&lt;Trazado compuesto&gt;" class="cls-1" d="M253.41 326.83c-3.92-3.35-8-4-12.95-4h-6.25V356h6.16c5.2 0 9.16-.66 13.13-4.19a17 17 0 0 0-.09-25zm-2.34 22.33c-3 2.86-6.43 3.43-10.48 3.43h-2.69v-26.34h2.69c3.92 0 7.27.53 10.31 3.22a13.56 13.56 0 0 1 .17 19.69z"/><path id="_Trazado_10" data-name="&lt;Trazado&gt;" class="cls-1" d="M334.64 348.8l-12.07-27.88-6.74 35.11h3.79l4.27-22.47h.09l10.66 23.83 10.7-23.83h.09l4.27 22.47h3.79l-6.74-35.11-12.11 27.88z"/><path id="_Trazado_compuesto_11" data-name="&lt;Trazado compuesto&gt;" class="cls-1" d="M512.81 332c0-7.49-5.86-9.16-12.16-9.16h-4.8V356h3.7v-14.55h.93l10 14.58h4.54l-10.58-14.89c5.15-.44 8.37-4.05 8.37-9.14zm-13.26 6.21v-11.96h1.1c4.45 0 8.46.53 8.46 6 0 5.16-4.23 5.95-8.41 5.95z"/><path id="_Trazado_compuesto_12" data-name="&lt;Trazado compuesto&gt;" class="cls-1" d="M388.08 346.6L392 356h4.09l-14.93-34.8-15.33 34.8h4.05l4-9.43zm-7-16.74l5.55 13.31h-11.24z"/></g><g id="_Grupo_5" data-name="&lt;Grupo&gt;"><g id="_Grupo_6" data-name="&lt;Grupo&gt;"><path id="_Trazado_compuesto_13" data-name="&lt;Trazado compuesto&gt;" class="cls-1" d="M375.93 256.35a2.7 2.7 0 0 0 3.43-2.06l7.95-30.3h35.48l7.95 30.3a2.7 2.7 0 0 0 3.43 2.06 2.63 2.63 0 0 0 1.77-3.18l-28.05-106.29a2.92 2.92 0 0 0-5.68 0l-28 106.29a2.63 2.63 0 0 0 1.72 3.18zM405.05 156l16.46 62.81H388.6z"/><path id="_Trazado_11" data-name="&lt;Trazado&gt;" class="cls-1" d="M154.14 254.13a2.38 2.38 0 0 0-2.35-2.35h-23.7v-81.65a2.35 2.35 0 0 0-2.35-2.34 2.42 2.42 0 0 0-2.35 2.34v86.35h28.4a2.33 2.33 0 0 0 2.35-2.35z"/><path id="_Trazado_compuesto_14" data-name="&lt;Trazado compuesto&gt;" class="cls-1" d="M286.73 183.2a33.21 33.21 0 0 0 8.66 21.05 2.64 2.64 0 0 0 4.7-1.65 2.62 2.62 0 0 0-1-2 26.55 26.55 0 0 1-7.07-17.48c-.52-14.5 5.68-25.3 17.45-30.39a38.33 38.33 0 0 1 11.86-2.79v115a2.59 2.59 0 1 0 5.18 0v-35.49h.78a35 35 0 0 0 4.72-.17l30 26.25a2.67 2.67 0 0 0 4 0 2.6 2.6 0 0 0-.46-3.84l-27-23.74a42.78 42.78 0 0 0 18.74-11 42.15 42.15 0 0 0 12.32-30.08c0-17.78-10.13-32.3-27.09-38.83a46.24 46.24 0 0 0-17.67-3.42 39.8 39.8 0 0 0-17.33 3.28c-13.98 6.03-21.36 18.55-20.79 35.3zm39.82-33.35a41.25 41.25 0 0 1 14 3c14.94 5.84 23.87 18.56 23.87 34a37.13 37.13 0 0 1-10.94 26.46 36.71 36.71 0 0 1-26.14 10.91h-.78z"/><path id="_Trazado_12" data-name="&lt;Trazado&gt;" class="cls-1" d="M244.5 150.94h19.05v103.17a2.6 2.6 0 0 0 5.18 0V150.94h19a2.6 2.6 0 0 0 2.59-2.59 2.63 2.63 0 0 0-2.59-2.59H244.5a2.6 2.6 0 0 0-2.59 2.59 2.63 2.63 0 0 0 2.59 2.59z"/><path id="_Trazado_compuesto_15" data-name="&lt;Trazado compuesto&gt;" class="cls-1" d="M160.33 256.41a2.35 2.35 0 0 0 2.84-1.73l6.28-23.7h27l6.06 23.53v.17a2.35 2.35 0 1 0 4.56-1.1v-.08l-21.7-84a2.59 2.59 0 0 0-4.9 0l-21.91 84a2.35 2.35 0 0 0 1.77 2.91zm22.57-77.85l12.28 47.72h-24.56z"/><path id="_Trazado_13" data-name="&lt;Trazado&gt;" class="cls-1" d="M684.3 256.48a2.39 2.39 0 0 0 2.35-2.35v-83.82a2.34 2.34 0 0 0-2.35-2.31 2.39 2.39 0 0 0-2.35 2.34v83.82a2.41 2.41 0 0 0 2.35 2.32z"/><path id="_Trazado_14" data-name="&lt;Trazado&gt;" class="cls-1" d="M430 150.94h19v103.17a2.6 2.6 0 0 0 5.18 0V150.94h19a2.6 2.6 0 0 0 2.59-2.59 2.63 2.63 0 0 0-2.59-2.59H430a2.6 2.6 0 0 0-2.59 2.59 2.63 2.63 0 0 0 2.59 2.59z"/><path id="_Trazado_compuesto_16" data-name="&lt;Trazado compuesto&gt;" class="cls-1" d="M696.84 256.41a2.35 2.35 0 0 0 2.83-1.72l6.26-23.69h27l6.05 23.49v.17a2.34 2.34 0 1 0 4.55-1.11v-.07l-21.65-83.79a2.61 2.61 0 0 0-2.44-1.75 2.59 2.59 0 0 0-2.46 1.75l-21.86 83.86a2.35 2.35 0 0 0 1.72 2.86zm22.52-77.68l12.25 47.61h-24.5z"/><path id="_Trazado_15" data-name="&lt;Trazado&gt;" class="cls-1" d="M482.37 150.94h19v103.17a2.59 2.59 0 0 0 2.6 2.37 2.55 2.55 0 0 0 2.58-2.37V150.94h19.05a2.6 2.6 0 0 0 2.59-2.59 2.64 2.64 0 0 0-2.59-2.59h-43.23a2.6 2.6 0 0 0-2.59 2.59 2.63 2.63 0 0 0 2.59 2.59z"/><path id="_Trazado_compuesto_17" data-name="&lt;Trazado compuesto&gt;" class="cls-1" d="M527.68 222.9c4.07 21 13.9 33.58 26.29 33.58 12.59 0 22.17-12.24 26.29-33.58a120 120 0 0 0 0-44.39c-4.09-21.34-13.67-33.58-26.29-33.58s-22.2 12.24-26.29 33.58a120 120 0 0 0 0 44.39zm5.18-43.46c3.62-18.6 11.31-29.27 21.11-29.27s17.5 10.67 21.12 29.27a113.91 113.91 0 0 1 0 42.53c-3.61 18.51-11.3 29.12-21.12 29.12s-17.51-10.61-21.11-29.09a113.49 113.49 0 0 1 0-42.56z"/><path id="_Trazado_compuesto_18" data-name="&lt;Trazado compuesto&gt;" class="cls-1" d="M597.2 204.25a2.64 2.64 0 1 0 3.74-3.69 26.55 26.55 0 0 1-7.07-17.48c-.52-14.5 5.68-25.3 17.45-30.39a38.33 38.33 0 0 1 11.86-2.79v115a2.59 2.59 0 1 0 5.18 0v-35.45h.78a35 35 0 0 0 4.72-.17l30 26.25a2.67 2.67 0 0 0 4 0 2.6 2.6 0 0 0-.47-3.84l-27-23.74a42.78 42.78 0 0 0 18.74-11 42.19 42.19 0 0 0 12.32-30.08c0-17.78-10.13-32.3-27.09-38.83a46.24 46.24 0 0 0-17.67-3.42 39.8 39.8 0 0 0-17.33 3.28c-14 6-21.34 18.53-20.77 35.28a33.21 33.21 0 0 0 8.61 21.07zm31.16-54.4a41.25 41.25 0 0 1 14 3c14.94 5.84 23.87 18.56 23.87 34a37.13 37.13 0 0 1-10.94 26.46 36.71 36.71 0 0 1-26.14 10.91h-.78z"/></g><path id="_Trazado_compuesto_19" data-name="&lt;Trazado compuesto&gt;" class="cls-1" d="M801.73 285h-38.88a17.38 17.38 0 0 1 10.75-12.7 2.43 2.43 0 0 0-.89-4.69 2.35 2.35 0 0 0-.89.17A22.16 22.16 0 0 0 758 285H109a22.19 22.19 0 0 0-13.86-17.22 2.34 2.34 0 0 0-.88-.17 2.43 2.43 0 0 0-.9 4.69 17.38 17.38 0 0 1 10.79 12.7H65.27a22.15 22.15 0 1 0 44 4.68h648.47a22.15 22.15 0 1 0 44-4.68zM87.15 305.87a17.36 17.36 0 0 1-17.32-16.21h34.64a17.36 17.36 0 0 1-17.32 16.21zm692.7 0a17.36 17.36 0 0 1-17.32-16.21h34.64a17.36 17.36 0 0 1-17.32 16.21z"/><path id="_Trazado_16" data-name="&lt;Trazado&gt;" class="cls-1" d="M578.76 348.54l-25.9-27.13v34.62h3.69v-25.59l25.91 27.09v-34.71h-3.7v25.72z"/><path id="_Trazado_compuesto_20" data-name="&lt;Trazado compuesto&gt;" class="cls-1" d="M615.48 322.24a17.18 17.18 0 1 0 17.31 17.23 17.33 17.33 0 0 0-17.31-17.23zm0 30.93a13.75 13.75 0 1 1 13.62-13.75 13.74 13.74 0 0 1-13.62 13.75z"/><path id="_Trazado_17" data-name="&lt;Trazado&gt;" class="cls-1" d="M530.67 322.82h3.7v33.21h-3.7z"/><path id="_Trazado_18" data-name="&lt;Trazado&gt;" class="cls-1" d="M427.86 348.8l-12.07-27.88-6.74 35.11h3.79l4.27-22.47h.09l10.66 23.83 10.7-23.83h.09l4.27 22.47h3.79l-6.74-35.11-12.11 27.88z"/><path id="_Trazado_compuesto_21" data-name="&lt;Trazado compuesto&gt;" class="cls-1" d="M472.78 338.28a7.37 7.37 0 0 0 3.22-6.48c0-6.78-5.07-9-11.1-9h-5.46V356h7.71c6.56 0 11.89-2.64 11.89-9.25a8.43 8.43 0 0 0-6.26-8.47zm-9.6-12h1.45c4.54 0 7.71.53 7.71 5.55s-3.57 5.64-7.75 5.64h-1.41zm3.7 26.34h-3.7v-12h3.21c4.06 0 9 .75 9 5.9s-4.39 6.07-8.51 6.07z"/><path id="_Trazado_19" data-name="&lt;Trazado&gt;" class="cls-1" d="M272.84 322.76h3.7v33.21h-3.7z"/><path id="_Trazado_compuesto_22" data-name="&lt;Trazado compuesto&gt;" class="cls-1" d="M253.41 326.83c-3.92-3.35-8-4-12.95-4h-6.25V356h6.16c5.2 0 9.16-.66 13.13-4.19a17 17 0 0 0-.09-25zm-2.34 22.33c-3 2.86-6.43 3.43-10.48 3.43h-2.69v-26.34h2.69c3.92 0 7.27.53 10.31 3.22a13.56 13.56 0 0 1 .17 19.69z"/><path id="_Trazado_20" data-name="&lt;Trazado&gt;" class="cls-1" d="M334.64 348.8l-12.07-27.88-6.74 35.11h3.79l4.27-22.47h.09l10.66 23.83 10.7-23.83h.09l4.27 22.47h3.79l-6.74-35.11-12.11 27.88z"/><path id="_Trazado_compuesto_23" data-name="&lt;Trazado compuesto&gt;" class="cls-1" d="M512.81 332c0-7.49-5.86-9.16-12.16-9.16h-4.8V356h3.7v-14.55h.93l10 14.58h4.54l-10.58-14.89c5.15-.44 8.37-4.05 8.37-9.14zm-13.26 6.21v-11.96h1.1c4.45 0 8.46.53 8.46 6 0 5.16-4.23 5.95-8.41 5.95z"/><path id="_Trazado_compuesto_24" data-name="&lt;Trazado compuesto&gt;" class="cls-1" d="M388.08 346.6L392 356h4.09l-14.93-34.8-15.33 34.8h4.05l4-9.43zm-7-16.74l5.55 13.31h-11.24z"/></g></g><g id="_Grupo_7" data-name="&lt;Grupo&gt;"><path id="_Trazado_compuesto_25" data-name="&lt;Trazado compuesto&gt;" class="cls-1" d="M252.31 442c0-7.57 5-17.71 17.54-17.71a11.41 11.41 0 0 1 6.28 1.67l1.2-1.24h.78l-2.24 9.2h-1.16a21.33 21.33 0 0 0-.34-5.94c-.65-1.16-2.45-2.23-5.21-2.23-8.47 0-12.55 9.8-12.55 16.34 0 6 3.05 8.68 7 8.68a9.26 9.26 0 0 0 5.29-1.72 25.18 25.18 0 0 0 4.3-6.32h1.21l-2.93 8.09a24.16 24.16 0 0 1-8.3 1.5c-5.37-.05-10.87-2.32-10.87-10.32z"/><path id="_Trazado_compuesto_26" data-name="&lt;Trazado compuesto&gt;" class="cls-1" d="M284.77 444.83a11.47 11.47 0 0 1 .39-3.05l3.39-13.8c.17-.69-.08-1-.77-1.21l-1.76-.43v-1.24h10.19v1.24l-2.41.48c-1 .17-1.29.56-1.42 1.11l-3.27 12.82a17.56 17.56 0 0 0-.64 3.74c0 3.18 1.5 5.37 5.5 5.37 5.59 0 7.83-4.38 8.86-8.47l3.31-12.9c.3-1 0-1.5-.82-1.67l-2.49-.52v-1.2h8.6v1.2l-1.68.47a1.77 1.77 0 0 0-1.5 1.47l-3.44 13.15c-1.81 6.88-5.12 10.84-11.83 10.84-5.24 0-8.21-2.71-8.21-7.4z"/><path id="_Trazado_compuesto_27" data-name="&lt;Trazado compuesto&gt;" class="cls-1" d="M314.44 442c0-7.57 5-17.71 17.54-17.71a11.43 11.43 0 0 1 6.28 1.67l1.2-1.24h.78l-2.24 9.2h-1.16a21 21 0 0 0-.35-5.94c-.64-1.16-2.45-2.23-5.2-2.23-8.47 0-12.55 9.8-12.55 16.34 0 6 3.05 8.68 7 8.68A9.29 9.29 0 0 0 331 449a25.18 25.18 0 0 0 4.3-6.32h1.2l-2.92 8.09a24.16 24.16 0 0 1-8.3 1.5c-5.34 0-10.84-2.27-10.84-10.27z"/><path id="_Trazado_compuesto_28" data-name="&lt;Trazado compuesto&gt;" class="cls-1" d="M342 450.51l2.75-.52c1.08-.21 1.25-.64 1.42-1.24l5.25-20.51c.21-.82.26-1.08-.77-1.34l-2.33-.56v-1.24h10.8v1.24l-2.54.56c-1 .22-1.2.48-1.42 1.29L350 448.53c-.25 1-.08 1.29.69 1.46l2.45.52v1.25H342z"/><path id="_Trazado_compuesto_29" data-name="&lt;Trazado compuesto&gt;" class="cls-1" d="M370.07 430.47l-3.48 14.15a36.79 36.79 0 0 0-.82 4.51.91.91 0 0 0 .78.91l3 .47v1.25h-10.1v-1.25l2.79-.56a1.51 1.51 0 0 0 1.08-1.16c.3-.82.86-2.58 1.25-4.13l4-16.08c.26-1-.09-1.59-1.29-1.85l-1.76-.39v-1.24h6l10.31 19.09 3.27-12a35.86 35.86 0 0 0 .82-4.38c0-.65-.65-.86-.9-.95l-2.71-.52v-1.24h9.46v1.24l-2.11.35a1.91 1.91 0 0 0-1.38 1.16 29.87 29.87 0 0 0-1.33 4.34l-5.12 20.08h-.21z"/><path id="_Trazado_compuesto_30" data-name="&lt;Trazado compuesto&gt;" class="cls-1" d="M390.37 450.51l2.1-.43a2.77 2.77 0 0 0 1.85-1.68l14.66-24h1.29l2.58 24.68a1 1 0 0 0 .69 1l1.59.47v1.25h-9.63v-1.25l2.62-.52a.88.88 0 0 0 .82-1.11l-.51-5h-9l-2.37 3.82c-.77 1.29-.73 2.2.13 2.37l2.07.43v1.25h-8.9zm17.93-8.43L407.22 431l-6.75 11.09z"/><path id="_Trazado_compuesto_31" data-name="&lt;Trazado compuesto&gt;" class="cls-1" d="M430.83 450.51l2.75-.52c1.07-.21 1.24-.64 1.42-1.24l5.24-20.51c.22-.82.26-1.08-.77-1.34l-2.32-.56v-1.24h10.79v1.24l-2.54.56c-1 .22-1.2.48-1.42 1.29l-5.11 20.34c-.26 1-.09 1.29.68 1.46l2.45.52v1.25h-11.17z"/><path id="_Trazado_compuesto_32" data-name="&lt;Trazado compuesto&gt;" class="cls-1" d="M452.67 450.51l3.69-.6c1.08-.22 1.29-.61 1.42-1.25l5.55-22.1h-2a9.88 9.88 0 0 0-4.77 1.07 27.11 27.11 0 0 0-3.44 5.46h-1.16l2.4-8.38a11.16 11.16 0 0 0 3.36.39H474a15.65 15.65 0 0 0 3.14-.35l-1.85 8.39h-1.21c.09-1.59.05-4.39-.56-5.59a7.83 7.83 0 0 0-4.43-1h-2.06l-5.33 21.85c-.3 1-.13 1.34.64 1.51l3.48.6v1.25h-13.15z"/><path id="_Trazado_compuesto_33" data-name="&lt;Trazado compuesto&gt;" class="cls-1" d="M473.18 450.51l2.1-.43a2.77 2.77 0 0 0 1.85-1.68l14.66-24h1.29l2.58 24.68a1 1 0 0 0 .69 1l1.59.47v1.25h-9.63v-1.25l2.62-.52a.88.88 0 0 0 .82-1.11l-.51-5h-9l-2.37 3.82c-.77 1.29-.73 2.2.13 2.37l2.07.43v1.25h-8.9zm17.93-8.43L490 431l-6.75 11.09z"/><path id="_Trazado_compuesto_34" data-name="&lt;Trazado compuesto&gt;" class="cls-1" d="M502.28 450.51L505 450c1.07-.21 1.24-.6 1.41-1.2l5.21-20.55c.21-.82.3-1.08-.73-1.34l-2.33-.56v-1.25h11.23v1.24l-3 .56c-1 .22-1.16.48-1.42 1.29L510 449.91a13.53 13.53 0 0 0 3.74.38h.64c1.64 0 4.26-.6 5.12-1.37 1.81-1.64 3.4-4.78 4.21-6.37h1.16l-3.61 9.21h-18.98z"/><path id="_Trazado_compuesto_35" data-name="&lt;Trazado compuesto&gt;" class="cls-1" d="M527.65 450.51l2.75-.52c1.08-.21 1.25-.64 1.42-1.24l5.25-20.51c.21-.82.26-1.08-.78-1.34l-2.32-.56v-1.24h10.79v1.24l-2.53.56c-1 .22-1.21.48-1.42 1.29l-5.12 20.34c-.26 1-.08 1.29.69 1.46l2.45.52v1.25h-11.18z"/><path id="_Trazado_compuesto_36" data-name="&lt;Trazado compuesto&gt;" class="cls-1" d="M543.3 450.51l2.11-.43a2.79 2.79 0 0 0 1.85-1.68l14.66-24h1.29l2.58 24.68a1 1 0 0 0 .69 1l1.59.47v1.25h-9.63v-1.25l2.62-.52a.89.89 0 0 0 .82-1.11l-.52-5h-9l-2.36 3.79c-.78 1.29-.73 2.2.13 2.37l2.06.43v1.25h-8.9zm17.93-8.43L560.16 431l-6.75 11.09z"/><path id="_Trazado_compuesto_37" data-name="&lt;Trazado compuesto&gt;" class="cls-1" d="M583.42 430.47l-3.49 14.15a35 35 0 0 0-.81 4.51.91.91 0 0 0 .77.91l3 .47v1.25h-10.14v-1.25l2.8-.56a1.48 1.48 0 0 0 1.07-1.16c.3-.82.86-2.58 1.25-4.13l4-16.08c.26-1-.08-1.59-1.29-1.85l-1.76-.39v-1.24h6l10.32 19.09 3.27-12a35.64 35.64 0 0 0 .81-4.38 1.13 1.13 0 0 0-.9-.95l-2.71-.52v-1.24h9.46v1.24l-2.11.35a1.88 1.88 0 0 0-1.37 1.16 28.68 28.68 0 0 0-1.33 4.34l-5.12 20.08H595z"/><path id="_Trazado_compuesto_38" data-name="&lt;Trazado compuesto&gt;" class="cls-1" d="M603.71 450.51l2.11-.43a2.81 2.81 0 0 0 1.85-1.68l14.66-24h1.29l2.58 24.68a1 1 0 0 0 .69 1l1.59.47v1.25h-9.64v-1.25l2.63-.52a.87.87 0 0 0 .81-1.11l-.51-5h-9l-2.36 3.82c-.78 1.29-.73 2.2.13 2.37l2.06.43v1.25h-8.9zm17.93-8.43L620.56 431l-6.75 11.09z"/></g><g id="_Grupo_8" data-name="&lt;Grupo&gt;"><path id="_Trazado_21" data-name="&lt;Trazado&gt;" class="cls-2" d="M183.28 437.92h43.38"/><path id="_Trazado_22" data-name="&lt;Trazado&gt;" class="cls-2" d="M651 437.92h43.38"/></g></g></svg>