<svg xmlns="http://www.w3.org/2000/svg" width="120.714" height="101.429" viewBox="0 0 120.714 101.429" fill="#fff"><path d="M88.5 33.274H34.214c-.14 0-.255-.115-.255-.255v-3.227c0-.14.114-.255.254-.255H88.5c.14 0 .255.115.255.255v3.226c0 .14-.114.254-.255.254zM88.5 45.48H34.214c-.14 0-.255-.115-.255-.255V42c0-.14.114-.256.254-.256H88.5c.14 0 .255.115.255.255v3.225c0 .14-.114.255-.255.255zM88.5 57.685H34.214c-.14 0-.255-.115-.255-.255v-3.226c0-.14.114-.255.254-.255H88.5c.14 0 .255.114.255.254v3.226c0 .14-.114.255-.255.255zM88.5 69.89H34.214c-.14 0-.255-.114-.255-.254V66.41c0-.14.114-.255.254-.255H88.5c.14 0 .255.115.255.255v3.226c0 .14-.114.255-.255.255z"/><g><path d="M302.143-99.968v-1.53c0-6.662-.007-13.325.01-19.988.003-.614.038-1.275.264-1.83.477-1.176 1.755-1.765 3.003-1.525 1.174.224 2.05 1.23 2.15 2.477.02.256.02.515.02.772 0 7.914.004 15.83 0 23.743-.002 2.388-.946 3.328-3.344 3.33-7.142.005-14.284.01-21.425-.004-2.093-.005-3.39-1.442-3.01-3.265.26-1.236 1.186-2.06 2.454-2.158.403-.03.81-.025 1.214-.025h18.665z"/><circle fill="none" stroke="#1D1D1B" stroke-width="3" stroke-miterlimit="10" cx="304.042" cy="-98.337" r="37.366"/></g></svg>