<svg width="70" height="52" viewBox="0 0 70 52" xmlns="http://www.w3.org/2000/svg"><title>Menu</title><defs><path id="a" d="M0 0h70v5H0z"/><path id="b" d="M0 15h70v5H0z"/><path id="c" d="M0 31h70v5H0z"/><path id="d" d="M0 47h70v5H0z"/></defs><g fill="none" fill-rule="evenodd"><path d="M69.746 5H.256C.115 5 0 4.88 0 4.734V.266C0 .12.115 0 .255 0h69.49c.14 0 .255.12.255.266v4.468c0 .146-.114.266-.254.266M69.746 20H.256C.115 20 0 19.88 0 19.734v-4.47C0 15.12.115 15 .255 15h69.49c.14 0 .255.12.255.265v4.47c0 .145-.114.265-.254.265M69.746 36H.256C.115 36 0 35.88 0 35.734v-4.468C0 31.12.115 31 .255 31h69.49c.14 0 .255.12.255.266v4.468c0 .146-.114.266-.254.266M69.746 52H.256C.115 52 0 51.88 0 51.734v-4.47C0 47.12.115 47 .255 47h69.49c.14 0 .255.12.255.265v4.47c0 .145-.114.265-.254.265" fill="#FEFEFE"/></g></svg>