<svg xmlns="http://www.w3.org/2000/svg" width="120.714" height="101.429" viewBox="0 0 120.714 101.429" fill="#fff"><path d="M90.05-94.6H35.765c-.14 0-.255-.116-.255-.256v-3.226c0-.14.114-.255.254-.255H90.05c.14 0 .255.115.255.255v3.226c0 .14-.114.255-.254.255zM90.05-82.396H35.765c-.14 0-.255-.115-.255-.255v-3.227c0-.14.114-.255.254-.255H90.05c.14 0 .255.115.255.255v3.226c0 .14-.114.254-.254.254zM90.05-70.19H35.765c-.14 0-.255-.115-.255-.255v-3.226c0-.14.114-.256.254-.256H90.05c.14 0 .255.115.255.255v3.225c0 .14-.114.255-.254.255zM90.05-57.985H35.765c-.14 0-.255-.115-.255-.255v-3.226c0-.14.114-.255.254-.255H90.05c.14 0 .255.114.255.254v3.226c0 .14-.114.255-.254.255z"/><g><path d="M61.01 50.432v-1.53c0-6.662-.008-13.325.01-19.988.002-.614.037-1.275.263-1.83.477-1.176 1.755-1.765 3.003-1.525 1.174.224 2.05 1.23 2.15 2.477.02.256.02.515.02.772 0 7.914.004 15.83 0 23.743-.002 2.388-.946 3.328-3.344 3.33-7.142.005-14.284.01-21.425-.004-2.094-.005-3.39-1.442-3.01-3.265.258-1.236 1.185-2.06 2.453-2.158.403-.03.81-.025 1.214-.025H61.01z"/><circle fill="none" stroke="#1D1D1B" stroke-width="3" stroke-miterlimit="10" cx="62.907" cy="52.063" r="37.366"/></g></svg>