<svg width="85" height="85" viewBox="0 0 85 85" xmlns="http://www.w3.org/2000/svg"><title>reloj</title><g fill="#FEFEFE" fill-rule="evenodd"><path d="M40.13 41.074v-1.662c0-7.236-.007-14.474.012-21.71.002-.667.04-1.385.282-1.987.515-1.278 1.89-1.918 3.236-1.658 1.265.246 2.207 1.336 2.317 2.692.02.278.02.558.02.838.002 8.597.005 17.193 0 25.79 0 2.593-1.018 3.614-3.6 3.616-7.695.006-15.39.01-23.083-.005-2.257-.005-3.652-1.565-3.243-3.545.28-1.342 1.28-2.238 2.644-2.344.434-.033.872-.025 1.308-.025H40.13z"/><path d="M80.002 42.5c0-20.712-16.79-37.502-37.502-37.502-20.712 0-37.502 16.79-37.502 37.502 0 20.712 16.79 37.502 37.502 37.502 20.712 0 37.502-16.79 37.502-37.502zm4.998 0C85 65.972 65.972 85 42.5 85S0 65.972 0 42.5 19.028 0 42.5 0 85 19.028 85 42.5z" fill-rule="nonzero"/></g></svg>