<svg id="Layer_1" xmlns="http://www.w3.org/2000/svg" xmlns:xlink="http://www.w3.org/1999/xlink" viewBox="0 0 472.2 131.6"><style>.st0{opacity:0.7;fill:#C9DDE8;} .st1{fill:#86754D;}</style><path class="st0" d="M460.2 131.6H12c-6.6 0-12-5.4-12-12V12C0 5.4 5.4 0 12 0h448.2c6.6 0 12 5.4 12 12v107.6c0 6.6-5.4 12-12 12z"/><image width="443" height="88" xlink:href="D66774CEB11037AA.png" transform="translate(14 21.6)" overflow="visible" opacity=".4"/><image width="431" height="76" xlink:href="D66774CEB11037AB.png" transform="translate(21 27.6)" overflow="visible" opacity=".75"/><path class="st1" d="M445.2 96.3c-1 .1-1.9.1-2.9 0-.2 0-.4-.1-.4-.3-.1-.4-.3-.8-.4-1.3-1.2-4.7-2.4-9.3-3.6-14-.4-1.7-.2-1.6-2-1.6h-18c-.2 0-.4.2-.4.3-.1.4-.2.8-.4 1.3-1.3 4.8-2.5 9.6-3.8 14.4-.1.3-.2.6-.3.8-.1.2-.2.3-.4.3h-2.4c-.1 0-.3-.1-.4-.2 0-.5.1-.9.2-1.3 3-11.6 6.1-23.2 9.1-34.8 2.1-7.9 4.1-15.9 6.2-23.8.1-.5.3-.9.4-1.4.2-.1.4-.2.6-.2 1.1-.1 2.1 0 2.9.1.3.3.3.8.4 1.2l1.2 4.5c3.2 12.3 6.4 24.5 9.5 36.8 1.4 5.3 2.8 10.6 4.1 15.9.2.7.4 1.3.4 2 0 .2.1.4.3.5.1.5.1.7.1.8zm-17.6-54.9c-.1 0-.2.1-.2.1-.1.3-.2.5-.3.8-1 3.9-2 7.9-3 11.8-1.8 6.9-3.5 13.7-5.3 20.6-.1.3-.1.6-.1.9 0 .1.1.3.2.3H436.1c.3 0 .5-.2.4-.6 0-.1-.1-.3-.1-.4-2.8-10.8-5.6-21.7-8.4-32.5-.1-.3-.2-.7-.4-1zM27 63.3c0-.3.1-.8.1-1.2.3-3.8.9-7.6 2.1-11.3.7-2.3 1.6-4.6 2.8-6.7 1.1-1.9 2.4-3.7 4-5.2 2-1.9 4.3-3.3 7-4 1.5-.4 3.1-.5 4.6-.4.3 0 .4.2.4.5v2.3c0 .2-.2.4-.5.5-.7.1-1.4.1-2 .1-2.2.2-4.2 1-6 2.4-.9.7-1.8 1.5-2.5 2.4-1.3 1.6-2.3 3.3-3.2 5.2-1.2 2.7-2 5.4-2.6 8.3-.8 4.1-1.2 8.3-.9 12.5.3 4.9 1.3 9.6 3.2 14.1.7 1.7 1.6 3.3 2.7 4.8.9 1.3 2 2.5 3.3 3.5 1.9 1.4 4 2.2 6.3 2.4.6 0 1.3.1 1.9.1.2 0 .4.2.4.4v2.5c0 .2-.2.4-.4.4H46c-3.9-.3-7.3-1.8-10.1-4.6-1.6-1.6-2.9-3.4-4-5.4-1.4-2.6-2.5-5.4-3.2-8.3-.8-3.1-1.3-6.2-1.5-9.3 0-.3-.1-.7-.1-1-.1-.2-.1-3.8-.1-5zM376.8 65.5V36.8v-1.5c0-.4.2-.5.6-.5h2.6c.4 0 .6.2.8.6l.6 1.5c6.6 16.2 13.2 32.4 19.8 48.7.4.9.8 1.9 1.2 2.8l.1.1c.1 0 .2 0 .2-.1 0-.2 0-.4.1-.6v-1.5-49.4-1.6c0-.1.3-.4.4-.4.8-.1 1.6-.1 2.5 0 .2 0 .3.2.4.4v58.9c0 2.6.3 2.2-2.2 2.3h-1.3c-.3 0-.5-.2-.7-.5-.6-1.4-1.1-2.8-1.7-4.2-6.4-15.6-12.7-31.2-19.1-46.8-.2-.4-.4-.9-.6-1.3h-.1s-.1 0-.1.1-.1.3-.1.4v50.1c0 2.6.3 2.2-2.4 2.3h-.3c-.4 0-.6-.1-.6-.6v-1.5c-.1-9.8-.1-19.4-.1-29zM133.6 34.9c.7 1.6 1.3 3.2 1.9 4.7 6.4 15.8 12.9 31.6 19.3 47.5.2.4.4.9.6 1.3l.1.1c.1 0 .2-.1.2-.1 0-.1 0-.3.1-.4v-1.3-49.2-1.2c0-1.6-.1-1.5 1.5-1.5.5 0 1 0 1.5.1.1 0 .2.1.2.2s.1.2.1.3V96.2c0 .2-.2.4-.4.4-1.2.1-2.3.1-3.5 0-.4-.4-.5-.9-.7-1.3-1.7-4.1-3.3-8.2-5-12.3-5.2-12.7-10.3-25.3-15.5-38l-.6-1.2h-.1c-.1 0-.2.1-.2.2v50.6c0 2.6.3 2.2-2.4 2.2h-.4c-.2 0-.4-.2-.4-.5v-1.7-52.3-5.5c0-.4 0-.8.1-1.2 0-.1.2-.3.3-.3 1-.6 2.1-.6 3.3-.4zM339.3 96.2c-.1.1-.2.1-.3.1h-2.6c-.2 0-.4-.2-.3-.4.1-.4.2-.8.3-1.1 4.5-17.4 9.1-34.8 13.6-52.2.5-2.1 1.1-4.2 1.7-6.3 0-.2.1-.4.1-.6.3-.9.3-1 1.3-1 3.1 0 2.4-.5 3.1 2.4 5 19.1 9.9 38.1 14.8 57.2.6 2.3.8 2.1-1.6 2.1h-.3c-.8 0-1 0-1.3-1-1-4.1-2.1-8.2-3.2-12.3-.3-1.1-.6-2.3-.9-3.4-.1-.3-.3-.5-.6-.5H344.7c-1 0-1 .1-1.3 1-.7 2.8-1.5 5.5-2.2 8.3-.6 2.2-1.2 4.5-1.8 6.8.2.3 0 .6-.1.9zm23.3-20.3c.1-.4 0-.7-.1-1-2.8-10.8-5.6-21.6-8.3-32.4-.1-.2-.1-.5-.2-.7 0-.1-.1-.3-.2-.3s-.2.2-.3.3c-.1.2-.1.4-.2.6-2.8 10.8-5.5 21.5-8.3 32.3-.1.3-.1.7-.2 1 0 .1.1.3.2.3h16.9c.3 0 .5-.1.7-.1zM196.6 96.4c-1.8 0-1.6.1-2-1.6L191 80.7c-.4-1.7-.3-1.6-2-1.6h-17.6c-.5 0-.7.2-.8.7-.7 2.6-1.4 5.3-2.1 7.9-.7 2.5-1.3 5.1-2 7.6 0 .2-.1.4-.2.6-.1.2-.3.4-.5.4h-2.3c-.4 0-.6-.2-.5-.7 0-.2.1-.4.1-.6 1.4-5.2 2.7-10.4 4.1-15.6 2.6-9.9 5.1-19.7 7.7-29.6 1.2-4.6 2.4-9.1 3.6-13.7.1-.3.2-.7.3-1 .1-.4.3-.5.7-.6h1.9c1 0 1.1.1 1.4 1.1 1.5 5.6 2.9 11.3 4.4 16.9 2.6 9.9 5.1 19.8 7.7 29.7 1.1 4.2 2.2 8.4 3.3 12.5.1.4.1.8.2 1.1 0 .1-.1.2-.2.2-.7.4-1.2.4-1.6.4zm-24.9-20.6c.3.2.6.1 1 .1h16.5c.3 0 .4-.2.3-.5-.1-.3-.1-.6-.2-.9-2.1-8.2-4.2-16.4-6.3-24.7-.7-2.5-1.3-5.1-2-7.6-.1-.3-.1-.7-.4-.9-.1.1-.2.1-.2.2-.1.4-.2.7-.3 1.1l-6 23.4c-.8 2.9-1.5 5.8-2.2 8.7-.2.4-.4.8-.2 1.1zM291.2 96.3c-.1-.4-.2-.8-.3-1.1-1.3-4.8-2.5-9.7-3.8-14.5 0-.2-.1-.4-.1-.6-.2-.7-.3-.8-1.1-.8h-17.3c-1.7 0-1.6-.1-2 1.6L263 94.7c-.1.4-.2.8-.3 1.3-.1.4-.3.5-.6.5h-2.5c-.3 0-.4-.2-.3-.5.1-.4.2-.8.3-1.3 2.1-8 4.2-16 6.3-23.9 2.8-10.6 5.5-21.2 8.3-31.8.3-1.2.6-2.3.9-3.5.1-.3.3-.5.6-.5h.6c3 .1 2.4-.5 3.1 2.4 3.9 14.8 7.7 29.6 11.5 44.4 1.2 4.5 2.3 8.9 3.5 13.4.4 1.5.6 1.5-1.1 1.5H292c-.4-.3-.6-.4-.8-.4zm-14.5-54.9c-.2.5-.3.9-.5 1.4-1.6 6.2-3.2 12.5-4.8 18.7-1.1 4.4-2.3 8.8-3.4 13.2 0 .1-.1.3-.1.4-.1.6 0 .7.5.8h17c.1 0 .3-.2.3-.3-.1-.4-.1-.8-.2-1.1-2.7-10.5-5.4-21-8.1-31.6-.1-.4-.2-.8-.4-1.3-.1 0-.2-.1-.3-.2zM83.6 55.4v13.4c0 2.1-.1 4.2-.2 6.3-.3 3.6-1 7.2-2.3 10.6-.8 2-1.7 3.9-3 5.7-.9 1.2-1.9 2.3-3.1 3.3-1 .8-2.2 1.5-3.4 1.9-2.6.8-5.1.7-7.5-.4-1.3-.6-2.4-1.4-3.5-2.4-1.2-1.2-2.3-2.5-3.1-4-1.3-2.2-2.2-4.6-2.9-7.1-.6-2.4-1-4.9-1.3-7.5-.2-2.1-.2-4.2-.2-6.3V36.7v-1.5c0-.4.2-.6.6-.6h2c.3 0 .5.2.5.6v33.6c0 2 .1 4.1.2 6.1.3 3.2.9 6.4 2 9.5.6 1.6 1.3 3.1 2.3 4.5.9 1.3 1.9 2.4 3.1 3.2.4.3.8.5 1.2.8 2 1 4 1 6 0 .8-.4 1.6-.9 2.3-1.6 1-.9 1.8-2 2.6-3.1 1-1.5 1.7-3.2 2.2-4.9.8-2.4 1.3-4.9 1.6-7.4.3-2.3.3-4.5.3-6.8V36.5c0-2.2-.2-2 2.1-2h.4c.6 0 .8.2.8.8v1.3c.3 6.4.3 12.6.3 18.8zM298.2 65.4v-29-1.5c0-.2.2-.4.4-.4h2.5c.2 0 .4.2.4.4V91c0 2.4-.3 2.1 2.1 2.1H319.2c.3 0 .4.2.4.5v2.3c0 .2-.2.4-.4.4h-20.4c-.4 0-.6-.1-.6-.7v-1.5-28.7zM249.4 67.2v27.5c0 1.8.1 1.7-1.8 1.7h-.9c-.4 0-.6-.2-.6-.5v-.6-1.5-53.7-1.7c0-.2-.2-.4-.5-.5H235.9c-.3 0-.5-.2-.5-.6v-2c0-.4.2-.6.6-.6h23.7c.4 0 .6.2.6.6v2.2c0 .2-.2.4-.4.4-.4 0-.9.1-1.3.1h-7.5c-1.6 0-1.5 0-1.5 1.5-.2 9.2-.2 18.4-.2 27.7zM89.6 65.7c.1-5.5.8-10.8 2.6-16 .8-2.2 1.7-4.3 2.9-6.3 1-1.7 2.3-3.3 3.7-4.6 1.9-1.8 4.1-3 6.7-3.7 1.5-.4 3.1-.5 4.6-.5.4 0 .6.2.6.5v2.3c0 .2-.2.4-.4.4-.3 0-.6 0-.9.1-.9.1-1.8.1-2.7.3-2.2.5-4.1 1.6-5.8 3.2-1.1 1.1-2.1 2.3-2.9 3.6-1.3 2-2.2 4.2-2.9 6.5-.9 2.7-1.5 5.5-1.8 8.4-.2 1.7-.3 3.5-.4 5.2-.1 2 .1 4 .3 6 .3 2.4.7 4.7 1.3 7 .6 2.2 1.4 4.4 2.4 6.4.8 1.5 1.7 3 2.7 4.3 1 1.2 2.2 2.3 3.6 3.1 1.6.9 3.2 1.5 5.1 1.7.6 0 1.3.1 1.9.1.3 0 .6.2.6.5v2.2c0 .3-.2.5-.6.5-3.6.1-6.9-.9-9.8-3-1.3-1-2.5-2.1-3.5-3.4-1.4-1.8-2.5-3.7-3.4-5.7-1.1-2.5-2-5.2-2.6-7.9-.9-3.5-1.4-7.7-1.3-11.2zM328 96.3c-.9 0-1.6-.8-1.6-1.6V36.3c0-.8.7-1.6 1.6-1.6s1.6.8 1.6 1.6v58.4c0 .9-.7 1.6-1.6 1.6zM226.3 96.7c-.9 0-1.6-.8-1.6-1.6V36.7c0-.8.7-1.6 1.6-1.6.9 0 1.6.8 1.6 1.6v58.4c0 .8-.8 1.6-1.6 1.6zM119.5 96.7c-.9 0-1.6-.8-1.6-1.6V36.7c0-.8.7-1.6 1.6-1.6s1.6.8 1.6 1.6v58.4c.1.8-.7 1.6-1.6 1.6z"/></svg>