<svg xmlns="http://www.w3.org/2000/svg" width="537441.071" height="249539.191" viewBox="0 0 503.85101 233.943"><path d="M0 94.65v25.32h262.81c3.448 63.524 56.044 113.973 120.435 113.973 66.606 0 120.606-53.994 120.606-120.605 0-6.406-.5-12.692-1.46-18.825l-211.73.183c6.486-31.743 28.902-57.688 58.522-69.135v.01c4.91-1.933 8.393-6.724 8.393-12.323C357.575 5.933 351.648 0 344.33 0c-1.713 0-3.346.326-4.842.92V.907c-39.396 15.346-68.742 50.796-75.422 93.742H0zm288.934 25.327l188.618-.03c-3.196 49.303-44.202 88.304-94.31 88.304-50.106 0-91.098-38.983-94.308-88.273z" fill="#86754d"/></svg>