<svg id="Layer_1" xmlns="http://www.w3.org/2000/svg" viewBox="-387 306.3 66.1 16" preserveAspectRatio="xMinYMid"><style>.st0{fill:#A4784E;}</style><path class="st0" d="M-364.3 312c1.7.1 4.6-.8 5.8-2 1.1-1.1 1.4-1.8 1.4-2.4 0-.7-.5-1-.6-1.1-.8-.4-2.6-.3-3.9 2.3-.5 1-.9 2.2-1 2.7-.5.1-1 .1-1.4-.1-.3-.1-.4-.1-.5.1-.3.2-.2.5.2.5m4-3.8c.9-1.4 2-1.7 2.2-1.2s-.1 1.6-1 2.5c-.8 1-2.4 1.8-2.7 1.9 0-.1.6-1.8 1.5-3.2m5.6 12.7c-.2-.2-.4-.1-.8.3-.8.8-2.7.7-3.7.3-2.5-1.1-3.1-2.4-5.7-3.6 1.5-1.7 2.4-4.1 2.9-5.9-.2.1-.6.2-1 .2-.1.6-1.2 3.7-2.6 5.3-.6-.5-1-.3-1.2-.1-.2.3 0 .9 1.3 1 1.4.7 2.4 1.6 3.8 2.6 3 2 5.3 1.3 6.5.6.6-.2.6-.5.5-.7m21.8-3.9c-.2.5-.7.7-.9.7-.2 0-.4-.2-.3-.6.1-.2.1-.4.2-.6.4-1 .8-2.1.9-2.5.2-.8-.2-1.3-.6-1.4s-.9.1-1.3.3c-.4.3-.9.8-1.1 1.1.3-1.2-.4-1.7-1.2-1.4-.5.1-.9.5-1.2.9-.2.2-.4.4-.5.6 0-.1.1-.6.2-.9 0-.3-.1-.6-.4-.6-.2-.1-.5 0-.7.1-.3.2-.5.5-.7.8 0 .1-.1.1 0 .1h.2c.1-.1.2-.3.5-.5.3-.1.5-.1.1.9-.4 1.1-1.6 4.2-1.6 4.2h.9s.6-1.6 1.1-2.9 1.4-1.9 1.9-2.1c.7-.2.6.6.3 1.5-.3.8-1.4 3.6-1.4 3.6h1l1.1-3c.5-1.3 1.4-1.9 1.9-2.1s.8.2.3 1.5l-.5 1.5c-.3.8-.4 1.2-.4 1.4 0 .4.2.7.6.7.7.1 1.6-.5 1.8-1.1-.1-.1 0-.2-.2-.2.1-.1.1-.1 0 0m-25.9-4.3c-.7.3-1.5.8-2.4 2.5-.3.6-.5 1.2-.4 1.9.2.9.9 1.4 1.8 1.1.3-.1.8-.4 1-.6.4-.3.5-.5.8-.9 0 .1-.1.6-.2.9 0 .4.2.7.6.7.7.1 1.6-.6 1.8-1.1v-.2s0-.1-.1 0c-.2.5-.7.7-.9.7-.2 0-.4-.2-.3-.6.1-.6.3-1 .5-1.5.3-.7 1.1-2.9 1.1-2.9h-.9s-.2.6-.3.7c0-.1-.1-.3-.2-.4-.1-.2-.3-.3-.7-.4-.3-.1-.8-.1-1.2.1m1.8.8c.1.3 0 .7 0 .7s-.5 1.3-.6 1.5c-.3.6-.8 1.1-1.2 1.4-.4.3-.7.4-1 .4-.5 0-.7-.3-.8-.7s-.1-.8.3-1.6 1-1.6 1.5-1.9c.4-.3.8-.4 1.1-.4.4 0 .6.3.7.6m35.7-.9c-.3-.1-.7-.2-1.2.1-.4.2-1 .8-1.3 1.3.1-.3.1-.7 0-1.1s-.7-.5-1.1-.3-.6.6-.8.9v.1s.1 0 .2-.1.2-.3.5-.4c.3-.2.5 0 .5.3 0 .2-.1.5-.2.7-.4 1.1-1.5 4.1-1.5 4.1h.9s1.1-3.1 1.3-3.3c1-1.9 1.9-2.1 2.2-2.1.4 0 .3.3.2.5s-.3.5-.2.6c.2.1.6.2.8-.3.3-.5 0-.8-.3-1m-6.1 3c.3-.7 1.1-2.9 1.1-2.9h-.9s-.2.6-.3.7c0-.1-.1-.3-.2-.4-.1-.2-.3-.3-.7-.4-.3-.1-.9 0-1.3.1-.7.3-1.5.8-2.4 2.5-.3.6-.5 1.2-.4 1.9.2.9.9 1.4 1.8 1.1.3-.1.8-.4 1-.6.4-.3.5-.5.8-.9 0 .1-.1.6-.2.9 0 .4.2.7.6.7.7.1 1.6-.6 1.8-1.1v-.2s0-.1-.1 0c-.2.5-.7.7-.9.7s-.4-.2-.3-.6c.3-.7.4-1 .6-1.5m-1 .1c-.3.6-.8 1.1-1.2 1.4-.4.3-.7.4-1 .4-.5 0-.7-.3-.8-.7s-.1-.8.3-1.6 1-1.6 1.5-1.9c.4-.3.8-.4 1.1-.4s.6.3.7.6c.1.3 0 .7 0 .7s-.5 1.3-.6 1.5m-14.1-3.2c-1.2-.2-2.7.7-3.4 2.3-.7 1.6-.3 3.1.9 3.4 1.2.2 2.7-.5 3.5-2.3.7-1.5.2-3.1-1-3.4m0 3.2c-.5 1.3-1.6 2.2-2.2 2.1-.7-.2-.9-1.4-.3-2.7.5-1.3 1.6-2.3 2.2-2.2.7.2.9 1.5.3 2.8m-7.5-2.1c.2-.5-.1-.8-.4-.9s-.7-.2-1.2.1c-.4.2-1 .8-1.3 1.3.1-.3.1-.7 0-1.1-.2-.5-.7-.6-1.1-.4s-.6.6-.8.9v.1s.1 0 .2-.1l.5-.5c.3-.2.5 0 .5.3 0 .2-.1.5-.2.7-.4 1.1-1.5 4.1-1.5 4.1h.9s1.1-3.1 1.3-3.3c1.1-1.9 1.9-2.1 2.2-2.1.4 0 .3.3.2.5-.1.2-.3.5-.2.6.2.2.7.2.9-.2m3.1.4c.2.1.6.2.8-.3.2-.5 0-.8-.5-1-.4-.2-1-.1-1.5 0-1.4.5-2.7 2.1-2.7 3.8 0 1.3 1.1 2.1 2.4 1.7 1.2-.4 1.5-1.6 1.5-1.6h-.1s-.1.3-.6.8-1.2.5-1.6.3c-.7-.4-1.2-2.3.8-4.2.4-.3.9-.6 1.3-.5.5.1.4.4.3.6-.1 0-.3.3-.1.4M-380.6 311.7c.3.2 1.1.3 1.4-.5s0-1.4-.8-1.8c-.7-.4-1.7-.2-2.5 0-2.3.9-4.5 3.6-4.5 6.5 0 2.2 1.9 3.5 4.1 2.8 2-.6 2.6-2.6 2.5-2.7 0 0-.1-.1-.2 0-.1 0-.2.6-1 1.3-.9.8-2 .9-2.7.4-1.2-.6-2-3.8 1.4-7.1.6-.6 1.5-.9 2.1-.9.8.2.7.7.5 1-.2.4-.5.8-.3 1M-371.9 311.7c.3.2 1.1.3 1.4-.5s0-1.4-.8-1.8c-.7-.4-1.7-.2-2.5 0-2.4.8-4.5 3.6-4.5 6.4 0 2.2 1.9 3.5 4.1 2.8 2-.6 2.6-2.6 2.5-2.7 0 0-.1-.1-.2 0-.1 0-.2.6-1 1.3-.9.8-2 .9-2.7.4-1.2-.6-2-3.8 1.4-7.1.6-.6 1.5-.9 2.1-.9.8.1.7.7.6 1-.3.5-.6.9-.4 1.1"/></svg>