<svg id="Layer_1" xmlns="http://www.w3.org/2000/svg" viewBox="-223 314.1 164.9 164.9"><style>.st0{fill:#C8DCE8;} .st1{fill:#86754D;}</style><path class="st0" d="M-59.6 393c2 2 2 5.2 0 7.2l-77.4 77.3c-2 2-5.2 2-7.2 0l-77.3-77.4c-2-2-2-5.2 0-7.2l77.4-77.3c2-2 5.2-2 7.2 0l77.3 77.4z"/><path class="st1" d="M-149.9 415.9h.7c1 0 1.9.5 1.9 1.7s-.8 1.7-1.9 1.7h-.7v-3.4zm.4 3h.1c.9 0 1.6-.3 1.6-1.3s-.7-1.3-1.6-1.3h-.1v2.6zm3.2-.5l-.4.8h-.5l1.6-3.5 1.6 3.5h-.5l-.4-.8h-1.4zm.7-1.7l-.6 1.4h1.2l-.6-1.4zm2.3 2.2h1v.4h-1.4v-3.4h.4v3zm2.9-2.6l.2-.4h.8v3.4h-.4v-3h-.6zm2.7 2.9l.9-1.2c-.1 0-.2.1-.3.1-.6 0-1-.5-1-1 0-.6.5-1.1 1.1-1.1.6 0 1.1.5 1.1 1.1 0 .3-.2.6-.4.9l-1.2 1.5-.2-.3zm1.4-2.3c0-.4-.3-.7-.7-.7-.4 0-.7.3-.7.7 0 .4.4.7.7.7.4 0 .7-.3.7-.7zm1.3.6c-.3-.2-.4-.4-.4-.8 0-.6.4-.9 1-.9.5 0 1 .4 1 .9 0 .3-.2.6-.4.8.3.1.5.4.5.8 0 .6-.5 1-1.1 1-.6 0-1.1-.4-1.1-1-.1-.3.1-.6.5-.8zm-.2.8c0 .3.3.6.7.6.3 0 .7-.3.7-.6 0-.4-.3-.6-.7-.6-.3 0-.7.3-.7.6zm.1-1.5c0 .3.3.6.6.6s.6-.3.6-.6-.3-.6-.6-.6-.6.3-.6.6zm4.3 2.1v.4h-2.2l1.5-1.8c.1-.2.3-.4.3-.6 0-.4-.3-.6-.7-.6-.3 0-.6.3-.6.6h-.4c.1-.6.5-1 1.1-1 .6 0 1.1.4 1.1 1 0 .3-.1.5-.3.7l-1.1 1.4h1.3zm4-1.9c-.3 0-.6.3-.6.6s.3.6.6.6.6-.3.6-.6c0-.4-.3-.6-.6-.6zm-27.1 0c-.3 0-.6.3-.6.6s.3.6.6.6.6-.3.6-.6c0-.4-.2-.6-.6-.6zm32-21.4c-1.9 0-3.4-1.9-4-5.1-.4-2.2-.4-4.6 0-6.8.6-3.3 2.1-5.1 4-5.1s3.4 1.9 4 5.1c.4 2.2.4 4.6 0 6.8-.6 3.2-2.1 5.1-4 5.1zm0-16.2c-1.5 0-2.7 1.6-3.2 4.5-.4 2.1-.4 4.4 0 6.5.6 2.8 1.7 4.5 3.2 4.5 1.5 0 2.7-1.6 3.2-4.5.4-2.1.4-4.4 0-6.5-.5-2.9-1.7-4.5-3.2-4.5zm-44 16.2c-.2 0-.4-.2-.4-.4v-15.8h-2.9c-.2 0-.4-.2-.4-.4s.2-.4.4-.4h6.6c.2 0 .4.2.4.4s-.2.4-.4.4h-2.9v15.8c0 .2-.2.4-.4.4zm28.4 0c-.2 0-.4-.2-.4-.4v-15.8h-2.9c-.2 0-.4-.2-.4-.4s.2-.4.4-.4h6.6c.2 0 .4.2.4.4s-.2.4-.4.4h-2.9v15.8c-.1.2-.2.4-.4.4zm8 0c-.2 0-.4-.2-.4-.4v-15.8h-2.9c-.2 0-.4-.2-.4-.4s.2-.4.4-.4h6.6c.2 0 .4.2.4.4s-.2.4-.4.4h-2.9v15.8c0 .2-.2.4-.4.4zm27.5 0c-.2 0-.4-.2-.4-.4v-12.8c0-.2.2-.4.4-.4s.4.2.4.4v12.8c0 .2-.2.4-.4.4zm-81.4 0h-4.3v-13.2c0-.2.1-.4.4-.4.2 0 .4.2.4.4v12.5h3.6c.2 0 .4.2.4.4-.1.1-.2.3-.5.3zm2.9-4.6h3.8l-1.9-7.3-1.9 7.3zm5.6 4.2c0 .2-.1.4-.3.4-.2 0-.4-.1-.4-.3l-.9-3.6h-4.1l-1 3.6c0 .2-.2.3-.4.3s-.3-.2-.3-.4l3.3-12.8c0-.2.2-.3.4-.3s.3.1.4.3l3.3 12.8zm76.4-4.2h3.7l-1.9-7.3-1.8 7.3zm5.6 4.2c0 .2-.1.4-.3.4-.2 0-.4-.1-.4-.3l-.9-3.6h-4.1l-1 3.6c0 .2-.2.3-.4.3s-.3-.2-.3-.4l3.3-12.8c0-.2.2-.3.4-.3s.3.1.4.3l3.3 12.8zm-49.2-5.3l-2.5-9.6-2.5 9.6h5zm-2.6.7h-2.7l-1.2 4.6c-.1.3-.3.4-.5.3-.2-.1-.3-.3-.3-.5l4.3-16.2c.1-.3.3-.3.4-.3.1 0 .4.1.4.3l4.3 16.2c.1.2-.1.4-.3.5-.2.1-.5 0-.5-.3l-1.2-4.6h-2.7zm-26.1 15.2h1c.8 0 1.4.1 2 .6.6.5.8 1.2.8 1.9s-.3 1.4-.8 1.9c-.6.5-1.2.6-2 .6h-.9v-5zm1 4.5c.6 0 1.1-.1 1.6-.5.4-.4.6-.9.6-1.5s-.2-1.1-.7-1.5c-.5-.4-1-.5-1.6-.5h-.4v4h.5zm5.5.5h-.6v-5.1h.6v5.1zm7-5.3l1.8 4.3 1.9-4.3 1 5.4h-.6l-.7-3.4-1.6 3.6-1.6-3.6-.7 3.4h-.6l1.1-5.4zm7.8 3.9l-.6 1.4h-.6l2.3-5.3 2.3 5.3h-.6l-.6-1.4h-2.2zm1.1-2.6l-.9 2h1.7l-.8-2zm5.3-1.3l1.8 4.3 1.9-4.3 1 5.4h-.6l-.7-3.4-1.6 3.6-1.6-3.6-.7 3.4h-.6l1.1-5.4zm6.7.3h.8c.9 0 1.7.3 1.7 1.4 0 .4-.2.8-.5 1 .6.1 1 .7 1 1.3 0 1-.8 1.4-1.8 1.4h-1.2v-5.1zm.6 2.2h.2c.6 0 1.2-.1 1.2-.9s-.5-.8-1.2-.8h-.2v1.7zm0 2.3h.6c.6 0 1.3-.2 1.3-.9 0-.8-.8-.9-1.4-.9h-.5v1.8zm5.5.5h-.6v-5.1h.7c1 0 1.9.3 1.9 1.4 0 .8-.5 1.3-1.3 1.4l1.6 2.3h-.7l-1.5-2.2h-.1v2.2zm0-2.7h.2c.6 0 1.3-.1 1.3-.9s-.6-.9-1.3-.9h-.2v1.8zm5.4 2.7h-.6v-5.1h.6v5.1zm2.8-5.3l4 4.1v-3.9h.6v5.3l-4-4.1v3.9h-.6v-5.3zm12.2 2.8c0 1.5-1.2 2.6-2.6 2.6-1.4 0-2.6-1.2-2.6-2.6 0-1.5 1.2-2.6 2.6-2.6 1.4 0 2.6 1.1 2.6 2.6zm-4.7 0c0 1.1.9 2.1 2.1 2.1 1.2 0 2.1-1 2.1-2.1 0-1.2-.9-2.1-2.1-2.1-1.2 0-2.1.9-2.1 2.1zm35-8.3h-5.9c.2-.9.8-1.6 1.6-1.9.1-.1.2-.2.2-.3 0-.2-.2-.4-.4-.4h-.1c-1.1.4-1.9 1.4-2.1 2.6h-108.2c-.2-1.2-1-2.2-2.1-2.6h-.1c-.2 0-.4.2-.4.4s.1.3.2.3c.8.3 1.5 1 1.6 1.9h-5.9v.5c0 1.9 1.5 3.4 3.4 3.4 1.8 0 3.3-1.4 3.4-3.2h108.1c.1 1.8 1.6 3.2 3.4 3.2 1.9 0 3.4-1.5 3.4-3.4 0-.2 0-.4-.1-.5zm-118.2 3.2c-1.4 0-2.6-1.1-2.6-2.5h5.3c-.1 1.4-1.3 2.5-2.7 2.5zm114.9 0c-1.4 0-2.6-1.1-2.6-2.5h5.3c-.1 1.4-1.3 2.5-2.7 2.5zm-27.6-12.5h.1c1.5 0 3-.6 4-1.7 1.1-1.1 1.7-2.5 1.7-4 0-2.4-1.4-4.3-3.6-5.2-.7-.3-1.4-.4-2.1-.5v11.4zm-4.8-3.1c-.8-.9-1.3-2-1.3-3.2-.1-2.6 1-4.5 3.2-5.4.8-.4 1.7-.5 2.6-.5.9 0 1.9.2 2.7.5 2.6 1 4.1 3.2 4.1 5.9 0 1.8-.7 3.4-1.9 4.6-.8.8-1.8 1.4-2.9 1.7l4.1 3.6c.2.2.2.4.1.6-.1.2-.4.2-.6 0l-4.6-4H-110.6v5.4c0 .2-.2.4-.4.4s-.4-.2-.4-.4v-17.6c-.6 0-1.2.2-1.8.4-1.8.8-2.7 2.4-2.7 4.6 0 1 .4 2 1.1 2.7.1.1.1.2.1.3 0 .2-.2.4-.4.4 0 .2-.1.1-.2 0zm-41.4 3.1h.1c1.5 0 3-.6 4-1.7 1.1-1.1 1.7-2.5 1.7-4 0-2.4-1.4-4.3-3.6-5.2-.7-.3-1.4-.4-2.1-.5v11.4zm-4.7-3.1c-.8-.9-1.3-2-1.3-3.2-.1-2.6 1-4.5 3.2-5.4.8-.4 1.7-.5 2.6-.5.9 0 1.9.2 2.7.5 2.6 1 4.1 3.2 4.1 5.9 0 1.8-.7 3.4-1.9 4.6-.8.8-1.8 1.4-2.9 1.7l4.1 3.6c.2.2.2.4.1.6-.1.2-.4.2-.6 0l-4.6-4H-156.7v5.4c0 .2-.2.4-.4.4s-.4-.2-.4-.4v-17.6c-.6 0-1.2.2-1.8.4-1.8.8-2.7 2.4-2.7 4.6 0 1 .4 2 1.1 2.7.1.1.1.2.1.3 0 .2-.2.4-.4.4 0 .2-.1.1-.2 0z"/></svg>