<svg xmlns="http://www.w3.org/2000/svg" width="537441.071" height="249540.257" viewBox="0 0 503.85101 233.944"><path d="M239.785 94.65c-6.68-42.946-36.026-78.396-75.422-93.742v.01C162.867.327 161.233 0 159.52 0c-7.317 0-13.244 5.933-13.244 13.247 0 5.6 3.48 10.39 8.393 12.325v-.01c29.62 11.446 52.035 37.392 58.52 69.135L1.46 94.514C.503 100.647 0 106.934 0 113.34c0 66.61 54 120.604 120.606 120.604 64.39 0 116.986-50.448 120.435-113.972h262.81V94.65H239.786zm-119.18 113.6c-50.105 0-91.11-39-94.308-88.302l188.618.03c-3.21 49.29-44.203 88.273-94.31 88.273z" fill="#86754d"/></svg>