<svg id="Layer_1" xmlns="http://www.w3.org/2000/svg" viewBox="-318.2 294.5 44.7 6.8"><style>.st0{fill:#A4784E;}</style><path class="st0" d="M-318.2 294.5h1.6c.6 0 1 .1 1.4.4.3.3.5.7.5 1.2 0 .4-.1.8-.3 1.1-.2.3-.6.5-1 .7.3.1.6.2.7.4.1.2.2.5.3.9l.4 2h-.7l-.3-1.6c-.1-.5-.2-.9-.4-1.1-.2-.2-.5-.3-.9-.3h-.7v3.1h-.6v-6.8zm.6.6v2.5h.7c.5 0 .8-.1 1.1-.4.3-.3.4-.6.4-1s-.1-.6-.3-.8c-.2-.2-.5-.3-.9-.3h-1zM-310.7 300.7c-.5.4-.9.6-1.4.6s-1-.2-1.3-.7c-.3-.4-.5-1-.5-1.7s.2-1.3.5-1.8c.4-.4.8-.6 1.4-.6.5 0 .8.2 1.1.5.3.4.4.8.4 1.4v.3h-2.7v.2c0 .6.1 1 .4 1.3.2.3.5.5.9.5.5 0 .9-.3 1.4-.8v.8h-.2zm-.5-2.5c0-.4-.1-.7-.3-.9-.2-.2-.4-.3-.6-.3-.2 0-.5.1-.7.3-.2.2-.4.5-.4.9h2zM-309.6 300.2c.4.4.9.5 1.3.5.3 0 .6-.1.8-.2.2-.2.3-.4.3-.6 0-.2-.1-.3-.2-.4-.1-.1-.4-.2-.8-.4-.5-.1-.8-.3-1-.5-.2-.2-.3-.4-.3-.8s.1-.7.4-.9c.3-.2.6-.4 1-.4.3 0 .7.1 1.2.4v.7c-.4-.3-.8-.5-1.1-.5-.3 0-.5.1-.7.2-.2.1-.3.3-.3.5s.1.3.2.4c.2.2.4.3.8.4.9.3 1.3.7 1.3 1.3 0 .4-.2.7-.5 1-.3.3-.7.4-1.2.4-.4 0-.8-.1-1.3-.4v-.7h.1zM-305.4 295.3h.5v1.4h.9v.5h-.9v3.2c0 .1 0 .2.1.3.1.1.2.1.3.1.1 0 .3-.1.4-.2v.6c-.2.1-.4.1-.6.1s-.4-.1-.6-.2c-.2-.1-.2-.4-.2-.7v-3.3h-.6v-.5h.6l.1-1.3zM-302.9 296.9c.5-.2.9-.4 1.2-.4.5 0 .8.1 1.1.4.2.3.4.7.4 1.1v2.5c0 .2.1.3.2.3s.2 0 .3-.1v.5c-.2.1-.3.1-.5.1-.4 0-.6-.2-.6-.7-.2.2-.3.4-.5.5-.2.1-.4.2-.6.2-.4 0-.7-.1-.9-.4-.2-.3-.4-.6-.4-1s.2-.7.4-1c.3-.3.9-.5 1.9-.5v-.4c0-.3-.1-.5-.2-.6-.2-.2-.4-.3-.6-.3-.3 0-.7.2-1.2.5v-.7zm2.1 1.9c-.8.1-1.3.2-1.5.4-.2.2-.3.4-.3.7 0 .2.1.4.2.6.2.2.3.2.6.2s.5-.1.7-.4c.2-.2.3-.6.3-.9v-.6zM-296.5 296.6h.6v4.6h-.6v-.6c-.2.2-.3.4-.5.5-.2.1-.4.2-.6.2-.4 0-.7-.1-.9-.4-.2-.3-.3-.6-.3-1.1v-3.2h.6v3.2c0 .3.1.5.2.7.1.2.3.2.6.2s.6-.1.8-.4c.2-.3.3-.6.3-1v-2.7h-.2zM-293.9 297.3c.1-.3.3-.5.5-.6.1-.1.3-.2.5-.2s.3 0 .5.1v.6c-.2-.1-.3-.1-.5-.1-.3 0-.5.1-.7.4-.2.3-.3.6-.3 1v2.7h-.6v-4.6h.5l.1.7zM-291.4 296.9c.5-.2.9-.4 1.2-.4.5 0 .8.1 1.1.4.2.3.4.7.4 1.1v2.5c0 .2.1.3.2.3s.2 0 .3-.1v.5c-.2.1-.3.1-.5.1-.4 0-.6-.2-.6-.7-.2.2-.3.4-.5.5-.2.1-.4.2-.6.2-.4 0-.7-.1-.9-.4-.2-.3-.4-.6-.4-1s.2-.7.5-1c.2-.3.9-.4 1.9-.5v-.4c0-.3-.1-.5-.2-.6-.2-.2-.4-.3-.6-.3-.3 0-.7.2-1.2.5v-.7h-.1zm2.1 1.9c-.8.1-1.3.2-1.5.4-.2.2-.3.4-.3.7 0 .2.1.4.2.6.2.2.3.2.6.2s.5-.1.7-.4c.2-.2.3-.6.3-.9v-.6zM-287.3 296.6h.5l.1.7c.2-.3.3-.4.5-.6.2-.1.4-.2.7-.2.4 0 .7.1.9.4.2.3.3.6.3 1.1v3.2h-.6V298c0-.3-.1-.5-.2-.6s-.3-.2-.5-.2c-.3 0-.5.1-.8.4-.2.3-.3.6-.3.9v2.8h-.6v-4.7zM-282.8 295.3h.5v1.4h.9v.5h-.9v3.2c0 .1 0 .2.1.3.1.1.2.1.3.1s.3-.1.4-.2v.6c-.2.1-.4.1-.6.1-.2 0-.4-.1-.6-.2-.2-.1-.2-.4-.2-.7v-3.3h-.6v-.5h.6l.1-1.3zM-277.5 300.7c-.5.4-.9.6-1.4.6s-1-.2-1.3-.7c-.3-.5-.5-1-.5-1.7s.2-1.3.5-1.8c.4-.4.8-.6 1.3-.6s.8.2 1.1.5c.3.4.4.8.4 1.4v.3h-2.6v.2c0 .6.1 1 .4 1.3.2.3.5.5.9.5.5 0 .9-.3 1.4-.8v.8h-.2zm-.5-2.5c0-.4-.1-.7-.3-.9-.2-.2-.4-.3-.6-.3-.2 0-.5.1-.7.3-.1.2-.3.5-.4.9h2zM-276.4 300.2c.4.4.9.5 1.3.5.3 0 .6-.1.8-.2.2-.2.3-.4.3-.6 0-.2-.1-.3-.2-.4-.1-.1-.4-.2-.8-.4-.5-.1-.8-.3-1-.5-.2-.2-.3-.4-.3-.8s.1-.7.4-.9c.2-.3.6-.4 1-.4.3 0 .7.1 1.2.4v.7c-.4-.3-.8-.5-1.1-.5s-.5.1-.7.2c-.2.1-.3.3-.3.5s.1.3.2.4c.2.1.4.2.8.3.9.3 1.3.7 1.3 1.3 0 .4-.2.7-.5 1-.3.3-.7.4-1.2.4-.4 0-.9-.1-1.3-.4l.1-.6z"/></svg>